<?xml version="1.0" encoding="utf-8"?>
<!-- Generator: Adobe Illustrator 18.1.1, SVG Export Plug-In . SVG Version: 6.00 Build 0)  -->
<svg version="1.1" id="Layer_1" xmlns="http://www.w3.org/2000/svg" xmlns:xlink="http://www.w3.org/1999/xlink" x="0px" y="0px"
	 viewBox="0 0 133.5 133.5" enable-background="new 0 0 133.5 133.5" xml:space="preserve">
<path fill="#FFFFFF" d="M66.8,0C29.9,0,0,29.9,0,66.8c0,36.9,29.9,66.8,66.8,66.8c36.9,0,66.8-29.9,66.8-66.8
	C133.5,29.9,103.6,0,66.8,0z M16.2,68.1l25.8-25.8h14.2L30.7,68.1l25.4,25.8H41.9L16.2,68.1z M65.2,106.8H54.7l15.8-76.2h10.2
	L65.2,106.8z M93.9,93.9H79.8l25.4-25.8L79.8,42.2h14.2l25.8,25.8L93.9,93.9z"/>
</svg>
